<svg width="34" height="24" viewBox="0 0 34 24" fill="none" xmlns="http://www.w3.org/2000/svg">
<path d="M12.4817 1.60578L3.81287 10.6541L3.00244 11.5H4.17391H33.5V12.5H4.17391H3.01761L3.80962 13.3425L12.3471 22.424L11.4862 23.2849L0.691906 12L11.5002 0.700437L12.4817 1.60578Z" fill="white"/>
<path d="M12.4817 1.60578L3.81287 10.6541L3.00244 11.5H4.17391H33.5V12.5H4.17391H3.01761L3.80962 13.3425L12.3471 22.424L11.4862 23.2849L0.691906 12L11.5002 0.700437L12.4817 1.60578Z" fill="url(#paint0_linear)"/>
<path d="M12.4817 1.60578L3.81287 10.6541L3.00244 11.5H4.17391H33.5V12.5H4.17391H3.01761L3.80962 13.3425L12.3471 22.424L11.4862 23.2849L0.691906 12L11.5002 0.700437L12.4817 1.60578Z" fill="url(#paint1_linear)"/>
<path d="M12.4817 1.60578L3.81287 10.6541L3.00244 11.5H4.17391H33.5V12.5H4.17391H3.01761L3.80962 13.3425L12.3471 22.424L11.4862 23.2849L0.691906 12L11.5002 0.700437L12.4817 1.60578Z" fill="url(#paint2_linear)"/>
<path d="M12.4817 1.60578L3.81287 10.6541L3.00244 11.5H4.17391H33.5V12.5H4.17391H3.01761L3.80962 13.3425L12.3471 22.424L11.4862 23.2849L0.691906 12L11.5002 0.700437L12.4817 1.60578Z" stroke="white"/>
<defs>
<linearGradient id="paint0_linear" x1="17" y1="0" x2="17" y2="24" gradientUnits="userSpaceOnUse">
<stop stop-color="white"/>
<stop offset="1" stop-color="white" stop-opacity="0"/>
</linearGradient>
<linearGradient id="paint1_linear" x1="17" y1="0" x2="17" y2="24" gradientUnits="userSpaceOnUse">
<stop stop-color="white"/>
<stop offset="1" stop-color="white" stop-opacity="0"/>
</linearGradient>
<linearGradient id="paint2_linear" x1="17" y1="0" x2="17" y2="24" gradientUnits="userSpaceOnUse">
<stop stop-color="white"/>
<stop offset="1" stop-color="white" stop-opacity="0"/>
</linearGradient>
</defs>
</svg>
